<?xml version="1.0" standalone="no"?>
<!DOCTYPE svg PUBLIC "-//W3C//DTD SVG 1.1//EN" "http://www.w3.org/Graphics/SVG/1.1/DTD/svg11.dtd">
<svg xmlns="http://www.w3.org/2000/svg">
  <defs>
    <font id="JetBrainsMono" horiz-adv-x="600">
      <font-face font-family="JetBrains Mono SemiBold" units-per-em="1000" panose-1="2 0 0 9 0 0 0 0 0 0" ascent="1020" descent="-300" alphabetic="0" />
      <glyph unicode=" " glyph-name="gid402" horiz-adv-x="600" />
      <glyph unicode="!" glyph-name="gid308" horiz-adv-x="600" d="M257,228L235,597V730H365V597L343,228H257ZM285-5q-30,0-48.5,18T218,59q0,29 18.5,47T285,124h30q31,0 49-17.5T382,60T363.5,13T315-5H285Z" />
      <glyph unicode="&quot;" glyph-name="gid341" horiz-adv-x="600" d="M361,430L348,609V730H468V609L456,430H361Zm-216,0L132,609V730H252V609L240,430H145Z" />
      <glyph unicode="#" glyph-name="gid315" horiz-adv-x="600" d="M77,0l34,187H28v80h97l35,196H61v80H174l33,187h86L259,543H404l33,187h86L489,543h83V463H475L440,267h99V187H426L393,0H307l34,187H196L163,0H77ZM210,267H355l35,196H245L210,267Z" />
      <glyph unicode="$" glyph-name="gid409" horiz-adv-x="600" d="M270-140V-9Q173-1 117.5,53.5T61,194H177q0-39 24.5-65.5T270,95V319l-20,5q-83,23-128,79.5T77,538q0,84 52,138t141,62V870h62V739q90-8 143-61t54-137H412q0,38-20.5,62.5T332,635V422l35-10q83-22 127.5-78T539,197q0-86-56-141.5T332-9V-140H270ZM332,94q43,7 67,32.5T423,193q0,43-29,73t-81,36l19,29V94ZM270,388V635q-37-7-57-30t-20-59q0-47 31-78t87-35l-41-45Z" />
      <glyph unicode="%" glyph-name="gid430" horiz-adv-x="600" d="M1,0L512,730h87L88,0H1ZM443-5Q379-5 339,31.5T299,130v65q0,62 40,98.5T443,330t104-36.5T587,195V130q0-62-40-98.5T443-5Zm0,76q59,0 59,59v65q0,60-59,60t-59-60V130q0-59 59-59ZM157,400q-63,0-103.5,36T13,535v65q0,63 40.5,99T157,735t103.5-36T301,600V535q0-63-40.5-99T157,400Zm0,75q59,0 59,60v65q0,60-59,60q-29,0-44-14.5T98,600V535q0-31 15-45.5T157,475Z" />
      <glyph unicode="&amp;" glyph-name="gid434" horiz-adv-x="600" d="M232-10Q144-10 95,38.5T46,173V273q0,64 32,105t91,53l-11-18q-31,43-47,82.5T95,574q0,50 23.5,87t66,58T284,740q60,0 104-22.5T456,655t24-94H370q0,25-10.5,43.5t-30,28.5T284,643q-24,0-43-9.5T212.5,607T203,566t12-53t33-58L394,250l59,110H567L459,158L572,0H454L403,71Q332-10 232-10Zm9,98q30,0 56.5,17.5T343,153L204,348q-23-7-34.5-26T158,273V173q0-41 22-63t61-22Z" />
      <glyph unicode="&apos;" glyph-name="gid342" horiz-adv-x="600" d="M250,430L237,576V730H357V576L345,430H250Z" />
      <glyph unicode="(" glyph-name="gid320" horiz-adv-x="600" d="M485-120Q335-81 253.5,20.5T172,270V450q0,97 37.5,175.5t108,134T485,840V726q-60-14-104.5-52.5T312,578T288,450V270q0-70 24-126.5T380.5,49T485-3V-120Z" />
      <glyph unicode=")" glyph-name="gid321" horiz-adv-x="600" d="M115-120V-3q61,14 105,52t68,94.5T312,270V450q0,71-24,128t-68,95.5T115,726V840q98-25 168-80.5t107.5-134T428,450V270q0-148-81.5-249.5T115-120Z" />
      <glyph unicode="*" glyph-name="gid314" horiz-adv-x="600" d="M188,89l-87,60l44,64q15,21 36,41.5T223.5,293T261,323l-3,5q-20,1-47.5,3t-56,7.5T103,352L31,378L68,478l72-26q23-8 48-23t48-31t39-29l5,4q-6,20-14,47t-13.5,57T247,533v77H353V533q0-26-5.5-56t-13-57T320,373l4-4q17,14 39.5,29.5T411,429t48,23l73,26l37-100l-73-26q-23-8-51-13.5T390,331t-48-3l-3-6q16-12 37.5-30T419,253.5T454,213l44-64L411,89l-44,63q-14,21-26.5,48t-22,53.5T303,300h-7q-5-20-15-46.5T259,200t-27-48L188,89Z" />
      <glyph unicode="+" glyph-name="gid418" horiz-adv-x="600" d="M242,93V277H61V383H242V567H358V383H539V277H358V93H242Z" />
      <glyph unicode="," glyph-name="gid304" horiz-adv-x="600" d="M154-160l80,311H386L256-160H154Z" />
      <glyph unicode="-" glyph-name="gid326" horiz-adv-x="600" d="M140,277V383H460V277H140Z" />
      <glyph unicode="." glyph-name="gid303" horiz-adv-x="600" d="M300-10q-42,0-66.5,24.5T209,80q0,42 24.5,67T300,172t66.5-25T391,80q0-41-24.5-65.5T300-10Z" />
      <glyph unicode="/" glyph-name="gid316" horiz-adv-x="600" d="M64-110L415,830H536L185-110H64Z" />
      <glyph unicode="0" glyph-name="gid286" horiz-adv-x="600" d="M300-10q-70,0-121.5,27T99,93T71,207V523q0,66 28,114.5T178.5,713T300,740q71,0 122-27t79-75.5T529,523V207q0-65-28-114T421.5,17T300-10Zm0,100q54,0 86,32.5T418,207V523q0,52-32,84.5T300,640t-86-32.5T182,523V207q0-52 32-84.5T300,90Zm0,212q-29,0-46.5,18T236,368q0,29 17.5,46.5T300,432t46.5-17.5T364,368q0-30-17.5-48T300,302Z" />
      <glyph unicode="1" glyph-name="gid287" horiz-adv-x="600" d="M86,0V103H277V628L85,484V608L252,730H394V103H549V0H86Z" />
      <glyph unicode="2" glyph-name="gid288" horiz-adv-x="600" d="M82,0V114L309,345q50,52 73.5,93.5T406,522q0,53-29,83.5T298,636q-56,0-87.5-32T179,516H62q1,69 30.5,119T175,712.5T299,740q68,0 118.5-26t78-73T523,530q0-66-34-129T379,263L220,105H533V0H82Z" />
      <glyph unicode="3" glyph-name="gid289" horiz-adv-x="600" d="M292-10q-70,0-121.5,26t-80,73.5T62,200H179q0-52 30-81t84-29q55,0 84.5,30T407,200v56q0,52-30,81t-84,29H213V473L379,629H94V730H497V623L294,434v33q106,0 167.5-57T523,256V200q0-63-28-110.5T414.5,16T292-10Z" />
      <glyph unicode="4" glyph-name="gid290" horiz-adv-x="600" d="M395,0V148H69V320L351,730H481L181,290V252H395V420H511V0H395Z" />
      <glyph unicode="5" glyph-name="gid291" horiz-adv-x="600" d="M298-10q-97,0-157.5,49.5T74,173H190q4-38 32-59.5T299,92q55,0 83,29t28,81v71q0,53-28,81.5T300,383q-34,0-59-15t-37-40H90l5,402H500V625H206l-3-220h29l-29-26q0,47 36.5,74T338,480q89,0 138.5-54.5T526,273V202q0-98-60-155T298-10Z" />
      <glyph unicode="6" glyph-name="gid292" horiz-adv-x="600" d="M301-10q-73,0-128,30.5t-85,85T58,233q0,52 17,108t48,106L298,730H427L214,392l5-4q20,30 54,46t75,16q59,0 102.5-28T518,344t24-119q0-70-30-123T428,19.5T301-10ZM300,90q57,0 92,37t35,98t-35,98t-92,37t-92-37t-35-98t35-98t92-37Z" />
      <glyph unicode="7" glyph-name="gid293" horiz-adv-x="600" d="M162,0L425,622H181V516H65V730H542V619L287,0H162Z" />
      <glyph unicode="8" glyph-name="gid294" horiz-adv-x="600" d="M300-10q-71,0-123,24.5t-80.5,69T68,188q0,66 36.5,113T215,382l108,49q38,18 59.5,48.5T404,547q0,43-28,68t-76,25t-76.5-25.5T195,546q0-36 21.5-66T275,432l108-49q78-36 113.5-83.5T532,188q0-91-62.5-144.5T300-10Zm0,100q54,0 86,29t32,75q0,37-22,69.5T336,314L223,367q-71,34-107,78.5T80,552q0,56 27,98.5T183.5,717T300,741t116-24t76-66.5T519,552q0-63-35.5-107T376,366L262,313q-37-17-58.5-49T182,196q0-48 32-77t86-29Z" />
      <glyph unicode="9" glyph-name="gid295" horiz-adv-x="600" d="M173,0L386,338l-5,4q-20-30-54-46t-75-16q-59,0-102.5,28T82,386.5T58,505q0,71 30,123.5t84.5,82T299,740q74,0 128.5-30.5T512,625t30-128q0-52-16.5-108T477,283L302,0H173ZM300,370q57,0 92,37t35,98t-35,98t-92,37t-92-37t-35-98t35-98t92-37Z" />
      <glyph unicode=":" glyph-name="gid305" horiz-adv-x="600" d="M300,397q-41,0-66,22.5T209,478q0,37 25,59.5T300,560t66-22.5T391,478q0-36-25-58.5T300,397Zm0-407q-41,0-66,22.5T209,72t25,59t66,22t66-22t25-59T366,12.5T300-10Z" />
      <glyph unicode=";" glyph-name="gid306" horiz-adv-x="600" d="M159-160l80,311H391L261-160H159ZM290,397q-36,0-59,23t-23,58t23.5,58.5T290,560h20q35,0 58.5-23.5T392,478t-23-58t-59-23H290Z" />
      <glyph unicode="&lt;" glyph-name="gid424" horiz-adv-x="600" d="M522,58L78,270V389L522,601V493L227,354q-20-9-39-15t-29-8q11-2 30-8t38-15L522,169V58Z" />
      <glyph unicode="=" glyph-name="gid422" horiz-adv-x="600" d="M83,399V505H517V399H83Zm0-244V261H517V155H83Z" />
      <glyph unicode="&gt;" glyph-name="gid423" horiz-adv-x="600" d="M78,58V167L373,305q20,9 39,15t29,8q-11,2-30,8.5T373,352L78,490V601L522,389V270L78,58Z" />
      <glyph unicode="?" glyph-name="gid310" horiz-adv-x="600" d="M198,214l-2,195h72q53,0 85,29t32,77t-32,77t-86,29H124V730H262q73,0 126.5-26.5t83-74.5T501,515q0-60-25-106t-69.5-73T303,308V214H198ZM235-5q-29,0-48,18T168,59q0,29 19,47t48,18h30q31,0 49-17.5T332,60T313.5,13T265-5H235Z" />
      <glyph unicode="@" glyph-name="gid433" horiz-adv-x="600" d="M325-180q-89,0-153.5,35.5t-100,101T36,110V450q0,90 33.5,155t96,100T315,740q79,0 136-30t87.5-85T569,497V65H480l5,55H455l16,25q0-40-29.5-65T363,55q-63,0-97.5,41.5T231,214V330q0,77 34.5,118T363,489q49,0 78.5-24.5T471,399l-14,21h29l-15,69v8q0,48-18.5,83.5t-53,55T315,655q-86,0-133.5-54T134,450V110q0-94 50.5-146.5T325-89h70v-91H325Zm75,308q37,0 54,22t17,70V331q0,43-17.5,64.5T400,417q-35,0-53-22t-18-65V214q0-45 18-65.5T400,128Z" />
      <glyph unicode="A" glyph-name="gid1" horiz-adv-x="600" d="M39,0L224,730H376L561,0H443L400,181H200L158,0H39ZM221,277H378L332,480q-12,52-20.5,93T300,630q-3-16-11-56.5T269,481L221,277Z" />
      <glyph unicode="B" glyph-name="gid14" horiz-adv-x="600" d="M81,0V730H300q105,0 166-50t61-138q0-49-22-85.5T445,400t-87-20v7q54,1 95.5-20T519,305t24-98q0-63-28-110T435.5,25T313,0H81ZM194,99H305q56,0 89,30t33,83q0,54-33,86.5T305,331H194V99Zm0,328H299q52,0 81.5,27.5T410,529q0,48-29.5,75T300,631H194V427Z" />
      <glyph unicode="C" glyph-name="gid15" horiz-adv-x="600" d="M304-10q-69,0-120.5,26T104,90.5T76,204V526q0,66 28,114t79.5,74T304,740q70,0 120.5-26.5t78.5-74T531,526H415q0,54-29,82.5T304,637t-82.5-28.5T192,526V204q0-53 29.5-82T304,93t82,29t29,82H531q0-64-28-112.5t-78.5-75T304-10Z" />
      <glyph unicode="D" glyph-name="gid21" horiz-adv-x="600" d="M79,0V730H289q74,0 127.5-28T500,623.5T530,504V227q0-69-30-120T416.5,28T289,0H79ZM196,107h93q58,0 91,32t33,88V504q0,55-33,87t-91,32H196V107Z" />
      <glyph unicode="E" glyph-name="gid25" horiz-adv-x="600" d="M91,0V730H524V628H206V429H489V327H206V102H524V0H91Z" />
      <glyph unicode="F" glyph-name="gid35" horiz-adv-x="600" d="M84,0V731H532V623H198V416H506V308H200V0H84Z" />
      <glyph unicode="G" glyph-name="gid36" horiz-adv-x="600" d="M304-10q-69,0-120.5,26T104,90.5T76,204V526q0,66 28,114t79.5,74T304,740q70,0 120.5-26.5t78.5-74T531,526H415q0,54-29,82.5T304,637t-82.5-28.5T192,526V204q0-53 29.5-82.5T304,92t82,29.5T415,205v77H284V384H531V204q0-65-28-113T424.5,16.5T304-10Z" />
      <glyph unicode="H" glyph-name="gid43" horiz-adv-x="600" d="M81,0V730H198V432H402V730H519V0H402V324H198V0H81Z" />
      <glyph unicode="I" glyph-name="gid46" horiz-adv-x="600" d="M94,0V103H241V627H94V730H506V627H359V103H506V0H94Z" />
      <glyph unicode="J" glyph-name="gid56" horiz-adv-x="600" d="M270-10Q161-10 97.5,50.5T34,214H150q0-57 32-89.5T270,92t88,32t32,90V622H219V730H506V214q0-104-63.5-164T270-10Z" />
      <glyph unicode="K" glyph-name="gid58" horiz-adv-x="600" d="M80,0V730H197V430h91L432,730H558L391,380L567,0H436L287,325H197V0H80Z" />
      <glyph unicode="L" glyph-name="gid60" horiz-adv-x="600" d="M106,0V730H223V108H537V0H106Z" />
      <glyph unicode="M" glyph-name="gid66" horiz-adv-x="600" d="M61,0V730H202l72-233q11-34 18-63.5T302,390q3,14 10,43.5T329,497l69,233H539V0H429V236q0,49 3,107t7.5,117t10,112.5T459,665L356,316H246L141,665q5-38 10-89.5t9.5-110T168,348t3-112V0H61Z" />
      <glyph unicode="N" glyph-name="gid67" horiz-adv-x="600" d="M77,0V730H221L429,132q-2,30-5.5,71.5t-5.5,86T416,369V730H523V0H379L172,598q3-27 5.5-67t4.5-82.5t2-78.5V0H77Z" />
      <glyph unicode="O" glyph-name="gid73" horiz-adv-x="600" d="M300-10q-69,0-119.5,26T103,90.5T76,204V526q0,66 27,114t77.5,74T300,740q70,0 120-26t77-74t27-114V204q0-65-27-113.5T420,16T300-10Zm0,103q53,0 80.5,29T408,204V526q0,54-27.5,82.5T300,637t-80.5-28.5T192,526V204q0-53 28-82t80-29Z" />
      <glyph unicode="P" glyph-name="gid87" horiz-adv-x="600" d="M80,0V730H322q72,0 125-27.5T529.5,625T559,507q0-66-29.5-116.5t-82.5-78T322,285H197V0H80ZM197,390H322q54,0 86.5,32T441,507q0,55-32.5,86.5T322,625H197V390Z" />
      <glyph unicode="Q" glyph-name="gid89" horiz-adv-x="600" d="M412-180L303,0l19-9q-4,0-9.5-0.5T300-10q-69,0-120.5,27t-80,76T71,207V523q0,66 28.5,114.5t80,75.5T300,740q70,0 121-27t79.5-75.5T529,523V207q0-66-28.5-115.5T420,16L539-180H412ZM300,93q54,0 83,30.5T412,207V523q0,54-30,84.5T300,638t-82-30.5T188,523V207q0-53 29.5-83.5T300,93Z" />
      <glyph unicode="R" glyph-name="gid90" horiz-adv-x="600" d="M80,0V730H310q71,0 123.5-26.5t81.5-75T544,515q0-73-37-127.5T407,311L554,0H423L292,295H196V0H80ZM196,398H310q53,0 84.5,30.5T426,512t-31.5,84T310,627H196V398Z" />
      <glyph unicode="S" glyph-name="gid94" horiz-adv-x="600" d="M302-10q-74,0-128,25T90.5,86T61,194H177q0-47 34-74t93-27q55,0 87,26.5T423,193q0,39-22,67.5T338,299l-88,25q-83,23-128,79.5T77,538q0,62 27.5,107t78,70.5T302,741q104,0 165-54.5T529,541H412q0,45-29,71t-82,26q-51,0-79.5-24.5T193,546q0-40 21.5-68T276,438l91-26q83-22 127.5-78T539,197q0-62-29.5-108.5T427,16T302-10Z" />
      <glyph unicode="T" glyph-name="gid102" horiz-adv-x="600" d="M242,0V623H48V731H552V623H358V0H242Z" />
      <glyph unicode="U" glyph-name="gid107" horiz-adv-x="600" d="M300-10Q194-10 135.5,48T77,206V730H193V207q0-54 27-84.5T300,92q52,0 79.5,30.5T407,207V730H523V206q0-100-58-158T300-10Z" />
      <glyph unicode="V" glyph-name="gid119" horiz-adv-x="600" d="M224,0L39,730H159L273,249q10-39 18-80t12-66q4,25 11.5,66T332,250L444,730H561L376,0H224Z" />
      <glyph unicode="W" glyph-name="gid120" horiz-adv-x="600" d="M95,0L18,730H121l47-517q1-18 2.5-42.5t3-48.5T175,80q2,18 4,42t5,48.5t5,42.5l62,517H353l58-517q2-18 4.5-42.5T421,122t4-42q1,18 2.5,42t3.5,48.5t3,42.5l47,517H582L501,0H369L313,521q-2,21-4,45t-4,48t-4,41q-1-17-3-41t-4-48t-5-45L228,0H95Z" />
      <glyph unicode="X" glyph-name="gid125" horiz-adv-x="600" d="M31,0L235,373L43,730H174l97-191q10-19 18.5-38T302,472q4,10 12,29t18,38l99,191H557L365,376L569,0H438L330,209q-10,19-18.5,38.5T298,278q-4-11-12.5-30T267,210L158,0H31Z" />
      <glyph unicode="Y" glyph-name="gid126" horiz-adv-x="600" d="M242,0V267L26,730H147L269,465q13-28 21.5-54T302,370q3,15 11.5,41T334,465L453,730H574L358,267V0H242Z" />
      <glyph unicode="Z" glyph-name="gid135" horiz-adv-x="600" d="M81,0V112L383,622H87V730H509V618L207,108H519V0H81Z" />
      <glyph unicode="[" glyph-name="gid324" horiz-adv-x="600" d="M190-110V830H461V723H306V-3H461V-110H190Z" />
      <glyph unicode="\" glyph-name="gid317" horiz-adv-x="600" d="M414-110L63,830H185L536-110H414Z" />
      <glyph unicode="]" glyph-name="gid325" horiz-adv-x="600" d="M139-110V-3H294V723H139V830H410V-110H139Z" />
      <glyph unicode="^" glyph-name="gid428" horiz-adv-x="600" d="M71,340L245,730H357L529,340H421L324,577q-8,21-13.5,40T302,646q-3-10-9-29t-15-40L179,340H71Z" />
      <glyph unicode="_" glyph-name="gid330" horiz-adv-x="600" d="M60-129V-25H540V-129H60Z" />
      <glyph unicode="`" glyph-name="gid551" horiz-adv-x="600" d="M284,645L168,785H297L404,645H284Z" />
      <glyph unicode="a" glyph-name="gid139" horiz-adv-x="600" d="M242-10q-85,0-134.5,44.5T58,156q0,80 53.5,124T260,324H405v49q0,42-27,66t-75,24q-43,0-71.5-18.5T198,394H84q9,76 69.5,121T306,560q100,0 158-50t58-136V0H408V98H389l20,24q0-61-46-96.5T242-10Zm37,88q55,0 90.5,28.5T405,179v70H262q-40,0-64-22.5T174,166q0-41 28-64.5T279,78Z" />
      <glyph unicode="b" glyph-name="gid152" horiz-adv-x="600" d="M343-10q-68,0-108,38T195,132l25-27H195V0H80V730H197V574l-3-129h26l-25-27q0,66 40.5,104T343,560q83,0 133-56.5T526,351V199q0-96-50-152.5T343-10ZM302,91q51,0 79.5,29.5T410,204V346q0,54-28.5,83.5T302,459q-48,0-76.5-30T197,346V204q0-53 28.5-83T302,91Z" />
      <glyph unicode="c" glyph-name="gid153" horiz-adv-x="600" d="M304-10q-70,0-121.5,26t-80,74.5T74,204V346q0,66 28.5,114t80,74T304,560q101,0 162-53t64-144H414q-3,45-32,70t-78,25q-53,0-83.5-29T190,346V204q0-53 30.5-82.5T304,92q49,0 78,25t32,70H530q-3-91-64-144T304-10Z" />
      <glyph unicode="d" glyph-name="gid159" horiz-adv-x="600" d="M257-10q-83,0-133,56.5T74,199V351q0,96 50,152.5T257,560q68,0 108-38t40-104l-25,27h26l-3,129V730H520V0H405V105H380l25,27q0-66-40-104T257-10ZM298,91q49,0 77,30t28,83V346q0,53-28,83t-77,30q-51,0-79.5-29.5T190,346V204q0-54 28.5-83.5T298,91Z" />
      <glyph unicode="e" glyph-name="gid163" horiz-adv-x="600" d="M300-10q-68,0-119,26.5t-79,75T74,204V346q0,64 28,112.5t79,75T300,560q69,0 119.5-26.5t78.5-75T526,346V247H186V204q0-59 29.5-90T301,83q45,0 72.5,16T408,144H523Q510,74 449,32T300-10ZM414,315v31q0,59-28.5,90.5T300,468q-55,0-84.5-32T186,346V323l236,1l-8-9Z" />
      <glyph unicode="f" glyph-name="gid174" horiz-adv-x="600" d="M209,0V385H55V491H209v86q0,70 46,111.5T379,730H540V627H381q-26,0-41-13.5T325,575V491H540V385H325V0H209Z" />
      <glyph unicode="g" glyph-name="gid175" horiz-adv-x="600" d="M154-180v99H320q42,0 63,20T404-3V46l2,102H380l25,24q0-65-39.5-102T259,33q-85,0-134,56.5T76,242V351q0,96 49,152.5T259,560q67,0 106.5-37T405,421l-25,24h25l-2,105H519V-5q0-81-52.5-128T322-180H154ZM298,134q49,0 77,30t28,83v99q0,53-28,83t-77,30q-51,0-78.5-29.5T192,346V247q0-54 27.5-83.5T298,134Z" />
      <glyph unicode="h" glyph-name="gid182" horiz-adv-x="600" d="M80,0V730H197V550l-2-105h30l-30-27q0,67 39.5,104.5T342,560q82,0 131-53t49-144V0H405V351q0,52-27.5,80.5T302,460q-49,0-77-30t-28-84V0H80Z" />
      <glyph unicode="i" glyph-name="gid185" horiz-adv-x="600" d="M78,0V106H271V445H103V550H383V106H557V0H78ZM317,644q-37,0-58,18.5T238,713q0,33 21,52t58,19t58-19t21-52q0-32-21-50.5T317,644Z" />
      <glyph unicode="j" glyph-name="gid196" horiz-adv-x="600" d="M83-180V-72H226q52,0 81,28.5T336,37V442H113V550H453V35q0-99-60-157T230-180H83ZM389,644q-37,0-58,18.5T310,713q0,33 21,52t58,19t58-19t21-52q0-32-21-50.5T389,644Z" />
      <glyph unicode="k" glyph-name="gid199" horiz-adv-x="600" d="M83,0V730H200V331h92L432,550H563L392,285L566,0H433L292,232H200V0H83Z" />
      <glyph unicode="l" glyph-name="gid202" horiz-adv-x="600" d="M382,0q-53,0-92.5,21.5T228,82t-22,91V625H28V730H323V173q0-31 17.5-49.5T388,105H557V0H382Z" />
      <glyph unicode="m" glyph-name="gid208" horiz-adv-x="600" d="M55,0V550h97V478h20l-16-20q0,47 25.5,74.5T248,560q45,0 69.5-35.5T342,428l-23,50h36l-15-20q0,47 26,74.5T435,560q51,0 80.5-38.5T545,419V0H442V415q0,29-12.5,45T393,476t-37-15.5T343,416V0H257V415q0,30-13,45.5T207,476t-36-15.5T159,416V0H55Z" />
      <glyph unicode="n" glyph-name="gid209" horiz-adv-x="600" d="M80,0V550H195V445h30l-30-27q0,67 39.5,104.5T342,560q82,0 131-53t49-144V0H405V351q0,52-27.5,80T302,459q-49,0-77-29.5T197,346V0H80Z" />
      <glyph unicode="o" glyph-name="gid216" horiz-adv-x="600" d="M300-9Q231-9 180.5,17T102,91.5T74,206V344q0,66 28,114.5T180.5,533T300,559q70,0 120-26t78-74.5T526,345V206q0-66-28-114.5T420,17T300-9Zm0,102q52,0 81,29t29,84V344q0,56-29,84.5T300,457q-51,0-80.5-28.5T190,344V206q0-55 29.5-84T300,93Z" />
      <glyph unicode="p" glyph-name="gid230" horiz-adv-x="600" d="M80-180V550H195V445h25l-25-27q0,66 40.5,104T344,560q83,0 132.5-56.5T526,351V199q0-63-22.5-110.5t-63-73T344-10q-68,0-108.5,38T195,132l25-27H194l3-129V-180H80ZM303,91q50,0 78.5,29.5T410,204V346q0,55-28.5,84T303,459q-49,0-77.5-30T197,346V204q0-53 28.5-83T303,91Z" />
      <glyph unicode="q" glyph-name="gid232" horiz-adv-x="600" d="M403-180V-24l3,129H380l24,27q0-66-39.5-104T257-10q-83,0-132,56.5T76,199V351q0,96 49,152.5T257,560q68,0 107.5-38T404,418l-24,27h25V550H520V-180H403ZM298,91q49,0 77,30t28,83V346q0,53-28,83t-77,30q-51,0-78.5-29T192,346V204q0-54 27.5-83.5T298,91Z" />
      <glyph unicode="r" glyph-name="gid233" horiz-adv-x="600" d="M98,0V550H209V445h29l-35-65q0,89 39.5,134.5T359,560q89,0 140-54.5T550,354V316H429v30q0,56-28.5,86T322,462q-51,0-79-30.5T215,346V0H98Z" />
      <glyph unicode="s" glyph-name="gid237" horiz-adv-x="600" d="M280-9Q219-9 173.5,10.5t-72,54T72,146H189q3-27 27.5-43T280,87h43q48,0 72,19t24,51q0,30-21.5,47.5T333,228l-70,10q-91,14-133.5,50.5T87,398q0,77 50.5,119T287,559h38q89,0 142-40t59-108H409q-3,23-25,37.5T325,463H287q-45,0-65.5-16.5T201,398q0-29 18-43.5T276,334l72-10q95-14 140-52.5T533,159q0-80-52.5-124T323-9H280Z" />
      <glyph unicode="t" glyph-name="gid245" horiz-adv-x="600" d="M360,0Q283,0 240,42.5T197,160V445H46V550H197V705H313V550H527V445H313V160q0-55 54-55H517V0H360Z" />
      <glyph unicode="u" glyph-name="gid250" horiz-adv-x="600" d="M299-10Q197-10 137.5,48T78,206V550H195V207q0-55 27.5-85T299,92q50,0 78,30t28,85V550H522V206q0-100-60.5-158T299-10Z" />
      <glyph unicode="v" glyph-name="gid262" horiz-adv-x="600" d="M225,0L43,550H162L271,207q10-31 18.5-62.5T302,95q5,18 13.5,49.5T332,207L439,550H557L376,0H225Z" />
      <glyph unicode="w" glyph-name="gid263" horiz-adv-x="600" d="M108,0L24,550h98l48-350q4-27 7.5-60T183,86q2,21 7,54t9,60l54,350h94l54-350q4-27 9-60t7-55q2,22 6.5,55t8.5,60l50,350h94L489,0H367L316,349q-4,28-9,61t-7,53q-3-20-7.5-53T284,349L230,0H108Z" />
      <glyph unicode="x" glyph-name="gid268" horiz-adv-x="600" d="M39,0L232,284L52,550H185l91-143q7-12 14-26.5T301,357q3,9 10,23.5T325,407l91,143H549L369,283L561,0H428L326,158q-7,12-14,27t-11,25q-4-10-11.5-25T274,158L172,0H39Z" />
      <glyph unicode="y" glyph-name="gid269" horiz-adv-x="600" d="M169-180L247,31L42,550H170L278,254q8-21 15.5-51T306,153q4,20 11.5,50T332,254L435,550H558L292-180H169Z" />
      <glyph unicode="z" glyph-name="gid278" horiz-adv-x="600" d="M81,0V108L373,447H90V550H508V442L212,103H519V0H81Z" />
      <glyph unicode="{" glyph-name="gid322" horiz-adv-x="600" d="M457-110q-57,0-99.5,21t-65,60T274,64l10,156q2,43-17,64.5T197,306H81V413H197q51,0 70,21.5T284,500L274,658q-3,54 19,92.5t64,59T457,830h62V723H470q-39,0-60.5-18T390,649l10-158q4-61-34-97T259,358v5q68,0 106.5-37T400,228L390,71q-1-36 20.5-55.5T470-4h49V-110H457Z" />
      <glyph unicode="|" glyph-name="gid443" horiz-adv-x="600" d="M242-110V830H358V-110H242Z" />
      <glyph unicode="}" glyph-name="gid323" horiz-adv-x="600" d="M81-110V-4h49q38,0 60,19.5T210,71L200,228q-4,61 34.5,98T341,363v-5q-68,0-106.5,36T200,491l10,158q2,38-19.5,56T130,723H81V830h62q58,0 100-20.5t64.5-59T326,658L316,500q-2-44 17.5-65.5T403,413H519V306H403q-50,0-69.5-21.5T316,220L326,64q4-54-18.5-93T243-89T143-110H81Z" />
      <glyph unicode="~" glyph-name="gid426" horiz-adv-x="600" d="M54,255v77q0,61 39,97.5T195,466q40,0 67-13.5T307.5,419t33-40T370,345.5T405,332t30.5,12T446,378v72H546V373q0-60-38.5-97T405,239q-40,0-67,13.5T292.5,286t-33,40T230,359.5T195,373t-30.5-11.5T154,327V255H54Z" />
      <glyph unicode="&#xa0;" glyph-name="gid403" horiz-adv-x="600" />
      <glyph unicode="&#xa1;" glyph-name="gid309" horiz-adv-x="600" d="M235-180V-40l22,362h86L365-40V-180H235Zm53,607q-31,0-50.5,18T218,492t19.5,46.5T288,556h24q31,0 50.5-17.5T382,492t-19.5-47T312,427H288Z" />
      <glyph unicode="&#xa2;" glyph-name="gid407" horiz-adv-x="600" d="M276-140V690h63V-140H276ZM304-10q-70,0-121.5,26t-80,74.5T74,204V346q0,66 28.5,114t80,74T304,560q101,0 162-53t64-144H414q-3,45-32,70t-78,25q-53,0-83.5-29T190,346V204q0-53 30.5-82.5T304,92q49,0 78,25t32,70H530q-3-91-64-144T304-10Z" />
      <glyph unicode="&#xa3;" glyph-name="gid414" horiz-adv-x="600" d="M75,0V127q24,15 49,37.5t42.5,48T184,263q0,42-11.5,71.5t-28,53t-33.5,46T82.5,483T71,548q0,57 28,100t79.5,67.5T300,740q68,0 118.5-24.5t78.5-69T527,541H408q-2,43-31.5,70T298,638q-52,0-80.5-26T189,542q0-28 10.5-49t26-41T256,408.5t26-56T293,272q0-43-20.5-77t-50-56T165,107H535V0H75ZM71,296v98H435V296H71Z" />
      <glyph unicode="&#xa4;" glyph-name="gid408" horiz-adv-x="600" d="M494,112l-87,87q-22-14-49-21t-57-7t-57,7t-50,21l-86-86L43,178l84,85q-15,23-23.5,51T95,373t8.5,58.5T127,482L41,569l66,66l88-88q23,14 49.5,21t56.5,7q61,0 109-30l84,85l65-65l-83-84q14-23 21.5-50.5T505,373t-8-58t-22-51l86-86l-67-66ZM301,252q34,0 61,15.5T404,311t15,62q0,35-15,62.5t-42,43T301,494t-61.5-15.5t-43-43T181,373q0-34 15.5-62t43-43.5T301,252Z" />
      <glyph unicode="&#xa5;" glyph-name="gid416" horiz-adv-x="600" d="M60,266v88H540V266H60Zm0-155v88H540V111H60ZM242,0V267L26,730H147L269,465q13-28 21.5-54T302,370q3,15 11.5,41T334,465L453,730H574L358,267V0H242Z" />
      <glyph unicode="&#xa6;" glyph-name="gid444" horiz-adv-x="600" d="M242,450V830H358V450H242Zm0-560V270H358V-110H242Z" />
      <glyph unicode="&#xa7;" glyph-name="gid436" horiz-adv-x="600" d="M285-154q-62,0-109,19T99.5-81.5T63,1H182q8-27 36-44t67-17h30q51,0 79,21t28,56q0,31-22.5,51T331,97l-93,20q-76,16-121,59.5T72,279q0,58 37,95.5T207,417v7q-29,4-59.5,20T96,492T75,573q0,77 56,122t156,45h30q89,0 146-40t67-108H410q-5,23-30.5,38.5T317,646H287q-47,0-72.5-19.5T189,574q0-28 21.5-48T274,497l95-20q79-17 123-61t44-105q0-58-36.5-95.5T399,175v-7q30-2 62-19t54-49.5T537,17q0-79-58.5-125T315-154H285Zm38,349q29-6 51.5,5T409,236t12,58q0,34-20.5,59.5T346,386l-65,13q-29,6-50-5t-32.5-35.5T187,302q0-36 19-62t50-32l67-13Z" />
      <glyph unicode="&#xa8;" glyph-name="gid550" horiz-adv-x="600" d="M416,644q-33,0-52,18.5T345,713q0,33 19,52t52,19q32,0 51.5-19T487,713q0-32-19.5-50.5T416,644Zm-232,0q-32,0-51.5,18.5T113,713q0,33 19.5,52T184,784q33,0 52-19t19-52q0-32-19-50.5T184,644Z" />
      <glyph unicode="&#xa9;" glyph-name="gid437" horiz-adv-x="600" d="M300,110q-76,0-133.5,30T77,224T45,350V500q0,72 32,126t89.5,84T300,740q77,0 134-30t89-84t32-126V350q0-72-32-126t-89-84T300,110Zm0,50q60,0 105,23.5T475,250t25,100V500q0,57-25,99.5T405,666T300,690T195,666t-70-66.5T100,500V350q0-57 25-100t70-66.5T300,160Zm5,85q-58,0-93.5,33T176,364V486q0,53 35.5,86T305,605t93-33t35-86H360q0,25-15.5,40T305,541q-25,0-40.5-15T249,486V364q0-25 15.5-40T305,309q24,0 39.5,15T360,364h73q0-53-35-86t-93-33Z" />
      <glyph unicode="&#xaa;" glyph-name="gid282" horiz-adv-x="600" d="M364,455v55h-3V650q0,19-15,30t-41,11q-23,0-38.5-9T249,658H186q6,38 38,60t81,22q54,0 86.5-24T424,650V455H364Zm-94-5q-45,0-72,23.5T171,537q0,39 29.5,62.5T280,623h92V578H280q-22,0-34-10.5T234,538t14.5-30.5T287,496q34,0 54,16t20,43h11V510H361q-10-28-34.5-44T270,450Z" />
      <glyph unicode="&#xab;" glyph-name="gid337" horiz-adv-x="600" d="M449,40L264,280L449,520H577L387,282L577,40H449ZM208,40L23,280L208,520H336L147,282L336,40H208Z" />
      <glyph unicode="&#xac;" glyph-name="gid427" horiz-adv-x="600" d="M416,192V324H70V430H530V192H416Z" />
      <glyph unicode="&#xad;" glyph-name="gid327" horiz-adv-x="600" d="M140,277V383H460V277H140Z" />
      <glyph unicode="&#xae;" glyph-name="gid438" horiz-adv-x="600" d="M300,110q-76,0-133.5,30T77,224T45,350V500q0,72 32,126t89.5,84T300,740q77,0 134-30t89-84t32-126V350q0-72-32-126t-89-84T300,110Zm59,140L295,405h70l66-155H359Zm-59-90q60,0 105,23.5T475,250t25,100V500q0,57-25,99.5T405,666T300,690T195,666t-70-66.5T100,500V350q0-57 25-100t70-66.5T300,160ZM186,250V600H304q55,0 88-29t33-78t-33-77t-88-28H254V250H186Zm68,194h50q24,0 38,14t14,37t-14,37t-38,14H254V444Z" />
      <glyph unicode="&#xaf;" glyph-name="gid558" horiz-adv-x="600" d="M131,663v91H469V663H131Z" />
      <glyph unicode="&#xb0;" glyph-name="gid440" horiz-adv-x="600" d="M300,450q-67,0-108.5,40T150,595t41.5,105T300,740q68,0 109-40t41-105T409,490T300,450Zm-1,57q38,0 61,24.5T383,595q0,40-23,64t-61,24q-37,0-59.5-24T217,595q0-39 22.5-63.5T299,507Z" />
      <glyph unicode="&#xb1;" glyph-name="gid425" horiz-adv-x="600" d="M68,0V88H244V280H63V386H244V570H360V386H542V280H360V88H532V0H68Z" />
      <glyph unicode="&#xb2;" glyph-name="gid297" horiz-adv-x="600" d="M160,405v91L328,616q20,14 31.5,35.5T371,695q0,34-19.5,54T300,769q-33,0-52.5-20T228,695H147q2,67 43.5,106T300,840q70,0 111-39t41-104q0-37-22.5-73.5T369,560L249,477H461V405H160Z" />
      <glyph unicode="&#xb3;" glyph-name="gid298" horiz-adv-x="600" d="M284,395q-70,0-112.5,38.5T129,537h80q0-33 20.5-52T284,466q33,0 52.5,19T356,538t-19,53t-52,19H255v67l87,81H160v73H410V747L296,640v31q64,0 103-36t39-97q0-66-42-104.5T284,395Z" />
      <glyph unicode="&#xb4;" glyph-name="gid552" horiz-adv-x="600" d="M199,645L304,785H430L316,645H199Z" />
      <glyph unicode="&#xb5;" glyph-name="gid429" horiz-adv-x="600" d="M79-180V550H195V203q0-54 25.5-82.5T299,92q54,0 80,28.5T405,203V550H521V203q0-100-55.5-156.5T312-10q-46,0-78.5,13.5T183,36.5T159,74h-6q1,0 6-15t10-35t6-37l15-167H79Z" />
      <glyph unicode="&#xb6;" glyph-name="gid435" horiz-adv-x="600" d="M248-180V310q-85,0-137.5,47T58,480v80q0,77 52.5,123.5T248,730h94V-180H248Zm175,0V730h93V-180H423Z" />
      <glyph unicode="&#xb7;" glyph-name="gid312" horiz-adv-x="600" d="M300,256q-42,0-66.5,24.5T209,346q0,42 24.5,67T300,438t66.5-25T391,346q0-41-24.5-65.5T300,256Z" />
      <glyph unicode="&#xb8;" glyph-name="gid559" horiz-adv-x="600" d="M198-213v62h75q23,0 37,11.5T324-115q0,20-28.5,33T215-69l35,91h64L294-37q28-2 58-12.5T402.5-79T423-126q0-35-35.5-61T294-213H198Z" />
      <glyph unicode="&#xb9;" glyph-name="gid296" horiz-adv-x="600" d="M151,405v73H282V758L160,670v88l97,72H364V478H467V405H151Z" />
      <glyph unicode="&#xba;" glyph-name="gid283" horiz-adv-x="600" d="M300,447q-56,0-90,31.5T176,559v67q0,50 34,80.5T300,737t90-30.5T424,626V559q0-49-34-80.5T300,447Zm0,53q27,0 44,16.5T361,559v67q0,26-17,42t-44,16t-44-16t-17-42V559q0-26 17-42.5T300,500Z" />
      <glyph unicode="&#xbb;" glyph-name="gid338" horiz-adv-x="600" d="M264,40L451,281L264,520H392L577,280L392,40H264ZM24,40L210,281L23,520H151L336,280L151,40H24Z" />
      <glyph unicode="&#xbc;" glyph-name="gid301" horiz-adv-x="600" d="M33,405v61H149V680q-5-8-14.5-19T114,640L52,589v83l72,58h99V466h94V405H33ZM471,0V66H300v88L426,325h82L373,140V124h98v83h73V0H471ZM81,0L448,730h71L152,0H81Z" />
      <glyph unicode="&#xbd;" glyph-name="gid300" horiz-adv-x="600" d="M313,0V75l130,74q28,16 41.5,32.5T498,217q0,25-15,39.5T444,271q-26,0-42-15t-16-40H313q1,51 37,82.5T444,330q57,0 92.5-29.5T572,222q0-33-23-62t-68-53L403,64V54q11,2 31,4.5T472,61H577V0H313ZM33,405v61H149V681q-5-8-14.5-19.5T114,641L52,590v82l72,58h99V466h99V405H33ZM81,0L448,730h71L152,0H81Z" />
      <glyph unicode="&#xbe;" glyph-name="gid302" horiz-adv-x="600" d="M471,0V66H300v88L426,325h82L373,140V124h98v83h73V0H471ZM155,400q-60,0-96.5,29T22,505H95q0-21 16-33.5T154,459q26,0 42,13t16,35t-16,35.5T155,556H125v61l73,56H46v57H270V672L166,591v19q54,0 86.5-28.5T285,507q0-48-35.5-77.5T155,400ZM81,0L448,730h71L152,0H81Z" />
      <glyph unicode="&#xbf;" glyph-name="gid311" horiz-adv-x="600" d="M336-170q-73,0-126.5,26t-83,73T97,40q0,59 24.5,104t69,71T295,242v94H400l2-195H330q-54,0-85.5-27T213,40t31.5-74T331-61H474V-170H336Zm2,596q-32,0-51,18t-19,48q0,29 19.5,46T338,555h24q31,0 50.5-17T432,492q0-30-19.5-48T362,426H338Z" />
      <glyph unicode="&#xc0;" glyph-name="gid7" horiz-adv-x="600" d="M39,0L224,730H376L561,0H443L400,181H200L158,0H39ZM221,277H378L332,480q-12,52-20.5,93T300,630q-3-16-11-56.5T269,481L221,277Zm33,533L138,950H267L374,810H254Z" />
      <glyph unicode="&#xc1;" glyph-name="gid2" horiz-adv-x="600" d="M39,0L224,730H376L561,0H443L400,181H200L158,0H39ZM221,277H378L332,480q-12,52-20.5,93T300,630q-3-16-11-56.5T269,481L221,277Zm8,533L334,950H460L346,810H229Z" />
      <glyph unicode="&#xc2;" glyph-name="gid5" horiz-adv-x="600" d="M39,0L224,730H376L561,0H443L400,181H200L158,0H39ZM221,277H378L332,480q-12,52-20.5,93T300,630q-3-16-11-56.5T269,481L221,277ZM108,810L246,950H354L492,810H377l-78,74l-74-74H108Z" />
      <glyph unicode="&#xc3;" glyph-name="gid11" horiz-adv-x="600" d="M39,0L224,730H376L561,0H443L400,181H200L158,0H39ZM221,277H378L332,480q-12,52-20.5,93T300,630q-3-16-11-56.5T269,481L221,277ZM370,808q-31,0-50,10t-32,23t-25,23t-28,10q-13,0-21.5-9T205,840V813H131v33q0,48 27.5,77T230,952q31,0 50-10t32-23t25-23t28-10q14,0 22,8t8,24v29h74V914q0-48-27-77t-72-29Z" />
      <glyph unicode="&#xc4;" glyph-name="gid6" horiz-adv-x="600" d="M39,0L224,730H376L561,0H443L400,181H200L158,0H39ZM221,277H378L332,480q-12,52-20.5,93T300,630q-3-16-11-56.5T269,481L221,277ZM416,810q-33,0-52,19t-19,51q0,33 19,52t52,19q32,0 51.5-19T487,880q0-32-19.5-51T416,810Zm-232,0q-32,0-51.5,19T113,880q0,33 19.5,52T184,951q33,0 52-19t19-52q0-32-19-51t-52-19Z" />
      <glyph unicode="&#xc5;" glyph-name="gid10" horiz-adv-x="600" d="M39,0L224,730H376L561,0H443L400,181H200L158,0H39ZM221,277H378L332,480q-12,52-20.5,93T300,630q-3-16-11-56.5T269,481L221,277Zm79,483q-58,0-93.5,33T171,880t35.5,87t93.5,33t93.5-33T429,880t-35.5-87T300,760Zm0,61q27,0 43.5,16T360,880t-16.5,43.5T300,940t-43.5-16.5T240,880t16.5-43T300,821Z" />
      <glyph unicode="&#xc6;" glyph-name="gid12" horiz-adv-x="600" d="M17,0L158,730H574V629H400V427H549V323H400V101H574V0H297V186H165L131,0H17ZM180,274H297V629H244L180,274Z" />
      <glyph unicode="&#xc7;" glyph-name="gid18" horiz-adv-x="600" d="M206-213v62h74q23,0 37.5,11.5T332-115q0,20-29,33T222-69l35,91h64L301-37q28-2 58-12.5T409.5-79T430-126q0-35-35-61t-93-26H206ZM304-10q-69,0-120.5,26T104,90.5T76,204V526q0,66 28,114t79.5,74T304,740q70,0 120.5-26.5T503,639t28-113H415q0,54-29,82.5T304,637t-82.5-28.5T192,526V204q0-53 29.5-82T304,93t82,29t29,82H531q0-64-28-112.5t-78.5-75T304-10Z" />
      <glyph unicode="&#xc8;" glyph-name="gid32" horiz-adv-x="600" d="M91,0V730H524V628H206V429H489V327H206V102H524V0H91ZM274,810L158,950H287L394,810H274Z" />
      <glyph unicode="&#xc9;" glyph-name="gid26" horiz-adv-x="600" d="M91,0V730H524V628H206V429H489V327H206V102H524V0H91ZM249,810L354,950H480L366,810H249Z" />
      <glyph unicode="&#xca;" glyph-name="gid29" horiz-adv-x="600" d="M91,0V730H524V628H206V429H489V327H206V102H524V0H91Zm37,810L266,950H374L512,810H397l-78,74l-74-74H128Z" />
      <glyph unicode="&#xcb;" glyph-name="gid30" horiz-adv-x="600" d="M91,0V730H524V628H206V429H489V327H206V102H524V0H91ZM436,810q-33,0-52,19t-19,51q0,33 19,52t52,19q32,0 51.5-19T507,880q0-32-19.5-51T436,810Zm-232,0q-32,0-51.5,19T133,880q0,33 19.5,52T204,951q33,0 52-19t19-52q0-32-19-51t-52-19Z" />
      <glyph unicode="&#xcc;" glyph-name="gid52" horiz-adv-x="600" d="M94,0V103H241V627H94V730H506V627H359V103H506V0H94ZM254,810L138,950H267L374,810H254Z" />
      <glyph unicode="&#xcd;" glyph-name="gid47" horiz-adv-x="600" d="M94,0V103H241V627H94V730H506V627H359V103H506V0H94ZM229,810L334,950H460L346,810H229Z" />
      <glyph unicode="&#xce;" glyph-name="gid49" horiz-adv-x="600" d="M94,0V103H241V627H94V730H506V627H359V103H506V0H94Zm14,810L246,950H354L492,810H377l-78,74l-74-74H108Z" />
      <glyph unicode="&#xcf;" glyph-name="gid50" horiz-adv-x="600" d="M94,0V103H241V627H94V730H506V627H359V103H506V0H94ZM416,810q-33,0-52,19t-19,51q0,33 19,52t52,19q32,0 51.5-19T487,880q0-32-19.5-51T416,810Zm-232,0q-32,0-51.5,19T113,880q0,33 19.5,52T184,951q33,0 52-19t19-52q0-32-19-51t-52-19Z" />
      <glyph unicode="&#xd0;" glyph-name="gid22" horiz-adv-x="600" d="M10,331v83H290V331H10ZM79,0V730H289q74,0 127.5-28T500,623.5T530,504V227q0-69-30-120T416.5,28T289,0H79ZM196,107h93q58,0 91,32t33,88V504q0,55-33,87t-91,32H196V107Z" />
      <glyph unicode="&#xd1;" glyph-name="gid72" horiz-adv-x="600" d="M77,0V730H221L429,132q-2,30-5.5,71.5t-5.5,86T416,369V730H523V0H379L172,598q3-27 5.5-67t4.5-82.5t2-78.5V0H77ZM370,808q-31,0-50,10t-32,23t-25,23t-28,10q-13,0-21.5-9T205,840V813H131v33q0,48 27.5,77T230,952q31,0 50-10t32-23t25-23t28-10q14,0 22,8t8,24v29h74V914q0-48-27-77t-72-29Z" />
      <glyph unicode="&#xd2;" glyph-name="gid78" horiz-adv-x="600" d="M300-10q-69,0-119.5,26T103,90.5T76,204V526q0,66 27,114t77.5,74T300,740q70,0 120-26t77-74t27-114V204q0-65-27-113.5T420,16T300-10Zm0,103q53,0 80.5,29T408,204V526q0,54-27.5,82.5T300,637t-80.5-28.5T192,526V204q0-53 28-82t80-29ZM254,810L138,950H267L374,810H254Z" />
      <glyph unicode="&#xd3;" glyph-name="gid74" horiz-adv-x="600" d="M300-10q-69,0-119.5,26T103,90.5T76,204V526q0,66 27,114t77.5,74T300,740q70,0 120-26t77-74t27-114V204q0-65-27-113.5T420,16T300-10Zm0,103q53,0 80.5,29T408,204V526q0,54-27.5,82.5T300,637t-80.5-28.5T192,526V204q0-53 28-82t80-29ZM229,810L334,950H460L346,810H229Z" />
      <glyph unicode="&#xd4;" glyph-name="gid76" horiz-adv-x="600" d="M300-10q-69,0-119.5,26T103,90.5T76,204V526q0,66 27,114t77.5,74T300,740q70,0 120-26t77-74t27-114V204q0-65-27-113.5T420,16T300-10Zm0,103q53,0 80.5,29T408,204V526q0,54-27.5,82.5T300,637t-80.5-28.5T192,526V204q0-53 28-82t80-29ZM108,810L246,950H354L492,810H377l-78,74l-74-74H108Z" />
      <glyph unicode="&#xd5;" glyph-name="gid85" horiz-adv-x="600" d="M300-10q-69,0-119.5,26T103,90.5T76,204V526q0,66 27,114t77.5,74T300,740q70,0 120-26t77-74t27-114V204q0-65-27-113.5T420,16T300-10Zm0,103q53,0 80.5,29T408,204V526q0,54-27.5,82.5T300,637t-80.5-28.5T192,526V204q0-53 28-82t80-29Zm70,715q-31,0-50,10t-32,23t-25,23t-28,10q-13,0-21.5-9T205,840V813H131v33q0,48 27.5,77T230,952q31,0 50-10t32-23t25-23t28-10q14,0 22,8t8,24v29h74V914q0-48-27-77t-72-29Z" />
      <glyph unicode="&#xd6;" glyph-name="gid77" horiz-adv-x="600" d="M300-10q-69,0-119.5,26T103,90.5T76,204V526q0,66 27,114t77.5,74T300,740q70,0 120-26t77-74t27-114V204q0-65-27-113.5T420,16T300-10Zm0,103q53,0 80.5,29T408,204V526q0,54-27.5,82.5T300,637t-80.5-28.5T192,526V204q0-53 28-82t80-29ZM416,810q-33,0-52,19t-19,51q0,33 19,52t52,19q32,0 51.5-19T487,880q0-32-19.5-51T416,810Zm-232,0q-32,0-51.5,19T113,880q0,33 19.5,52T184,951q33,0 52-19t19-52q0-32-19-51t-52-19Z" />
      <glyph unicode="&#xd7;" glyph-name="gid420" horiz-adv-x="600" d="M167,120L93,195L224,326L93,459l74,74L299,401L433,535l74-75L372,326L505,195l-74-75L299,253L167,120Z" />
      <glyph unicode="&#xd8;" glyph-name="gid83" horiz-adv-x="600" d="M26-40L475,750h99L125-40H26ZM300-10q-69,0-119.5,26T103,90.5T76,204V526q0,66 27,114t77.5,74T300,740q70,0 120-26t77-74t27-114V204q0-65-27-113.5T420,16T300-10Zm0,103q53,0 81.5,29T410,204V526q0,54-28.5,82.5T300,637t-81.5-28.5T190,526V204q0-53 28.5-82T300,93Z" />
      <glyph unicode="&#xd9;" glyph-name="gid112" horiz-adv-x="600" d="M300-10Q194-10 135.5,48T77,206V730H193V207q0-54 27-84.5T300,92q52,0 79.5,30.5T407,207V730H523V206q0-100-58-158T300-10ZM254,810L138,950H267L374,810H254Z" />
      <glyph unicode="&#xda;" glyph-name="gid108" horiz-adv-x="600" d="M300-10Q194-10 135.5,48T77,206V730H193V207q0-54 27-84.5T300,92q52,0 79.5,30.5T407,207V730H523V206q0-100-58-158T300-10ZM229,810L334,950H460L346,810H229Z" />
      <glyph unicode="&#xdb;" glyph-name="gid110" horiz-adv-x="600" d="M300-10Q194-10 135.5,48T77,206V730H193V207q0-54 27-84.5T300,92q52,0 79.5,30.5T407,207V730H523V206q0-100-58-158T300-10ZM108,810L246,950H354L492,810H377l-78,74l-74-74H108Z" />
      <glyph unicode="&#xdc;" glyph-name="gid111" horiz-adv-x="600" d="M300-10Q194-10 135.5,48T77,206V730H193V207q0-54 27-84.5T300,92q52,0 79.5,30.5T407,207V730H523V206q0-100-58-158T300-10ZM416,810q-33,0-52,19t-19,51q0,33 19,52t52,19q32,0 51.5-19T487,880q0-32-19.5-51T416,810Zm-232,0q-32,0-51.5,19T113,880q0,33 19.5,52T184,951q33,0 52-19t19-52q0-32-19-51t-52-19Z" />
      <glyph unicode="&#xdd;" glyph-name="gid127" horiz-adv-x="600" d="M242,0V267L26,730H147L269,465q13-28 21.5-54T302,370q3,15 11.5,41T334,465L453,730H574L358,267V0H242ZM229,810L334,950H460L346,810H229Z" />
      <glyph unicode="&#xde;" glyph-name="gid88" horiz-adv-x="600" d="M81,0V730H198V587H336q69,0 118.5-25.5t77-71.5T559,380q0-95-60-151T336,173H198V0H81ZM198,273H325q55,0 85.5,28.5T441,380q0,51-31,79t-85,28H198V273Z" />
      <glyph unicode="&#xdf;" glyph-name="gid243" horiz-adv-x="600" d="M78,0V526q0,64 27.5,112.5t77.5,75T300,740q69,0 120.5-23T501,652t29-102q0-51-22.5-89t-64-59T344,382v15q61,1 105.5-22t69-65.5T543,208q0-61-28.5-108t-80-73.5T314,0H254V101h52q55,0 86,31t31,83q0,53-31,82.5T306,327H261v93h43q50,0 78,30t28,78q0,52-29.5,81.5T299,639q-51,0-81-30t-30-83V0H78Z" />
      <glyph unicode="&#xe0;" glyph-name="gid145" horiz-adv-x="600" d="M242-10q-85,0-134.5,44.5T58,156q0,80 53.5,124T260,324H405v49q0,42-27,66t-75,24q-43,0-71.5-18.5T198,394H84q9,76 69.5,121T306,560q100,0 158-50t58-136V0H408V98H389l20,24q0-61-46-96.5T242-10Zm37,88q55,0 90.5,28.5T405,179v70H262q-40,0-64-22.5T174,166q0-41 28-64.5T279,78ZM259,645L143,785H272L379,645H259Z" />
      <glyph unicode="&#xe1;" glyph-name="gid140" horiz-adv-x="600" d="M242-10q-85,0-134.5,44.5T58,156q0,80 53.5,124T260,324H405v49q0,42-27,66t-75,24q-43,0-71.5-18.5T198,394H84q9,76 69.5,121T306,560q100,0 158-50t58-136V0H408V98H389l20,24q0-61-46-96.5T242-10Zm37,88q55,0 90.5,28.5T405,179v70H262q-40,0-64-22.5T174,166q0-41 28-64.5T279,78ZM234,645L339,785H465L351,645H234Z" />
      <glyph unicode="&#xe2;" glyph-name="gid143" horiz-adv-x="600" d="M242-10q-85,0-134.5,44.5T58,156q0,80 53.5,124T260,324H405v49q0,42-27,66t-75,24q-43,0-71.5-18.5T198,394H84q9,76 69.5,121T306,560q100,0 158-50t58-136V0H408V98H389l20,24q0-61-46-96.5T242-10Zm37,88q55,0 90.5,28.5T405,179v70H262q-40,0-64-22.5T174,166q0-41 28-64.5T279,78ZM113,645L251,785H359L497,645H382l-78,74l-74-74H113Z" />
      <glyph unicode="&#xe3;" glyph-name="gid149" horiz-adv-x="600" d="M242-10q-85,0-134.5,44.5T58,156q0,80 53.5,124T260,324H405v49q0,42-27,66t-75,24q-43,0-71.5-18.5T198,394H84q9,76 69.5,121T306,560q100,0 158-50t58-136V0H408V98H389l20,24q0-61-46-96.5T242-10Zm37,88q55,0 90.5,28.5T405,179v70H262q-40,0-64-22.5T174,166q0-41 28-64.5T279,78Zm96,565q-31,0-50,10t-32,23t-25,23t-28,10q-13,0-21.5-9T210,675V648H136v33q0,48 27.5,77T235,787q31,0 50-10t32-23t25-23t28-10q14,0 22,8t8,24v29h74V749q0-48-27-77t-72-29Z" />
      <glyph unicode="&#xe4;" glyph-name="gid144" horiz-adv-x="600" d="M242-10q-85,0-134.5,44.5T58,156q0,80 53.5,124T260,324H405v49q0,42-27,66t-75,24q-43,0-71.5-18.5T198,394H84q9,76 69.5,121T306,560q100,0 158-50t58-136V0H408V98H389l20,24q0-61-46-96.5T242-10Zm37,88q55,0 90.5,28.5T405,179v70H262q-40,0-64-22.5T174,166q0-41 28-64.5T279,78ZM421,644q-33,0-52,18.5T350,713q0,33 19,52t52,19q32,0 51.5-19T492,713q0-32-19.5-50.5T421,644Zm-232,0q-32,0-51.5,18.5T118,713q0,33 19.5,52T189,784q33,0 52-19t19-52q0-32-19-50.5T189,644Z" />
      <glyph unicode="&#xe5;" glyph-name="gid148" horiz-adv-x="600" d="M242-10q-85,0-134.5,44.5T58,156q0,80 53.5,124T260,324H405v49q0,42-27,66t-75,24q-43,0-71.5-18.5T198,394H84q9,76 69.5,121T306,560q100,0 158-50t58-136V0H408V98H389l20,24q0-61-46-96.5T242-10Zm37,88q55,0 90.5,28.5T405,179v70H262q-40,0-64-22.5T174,166q0-41 28-64.5T279,78Zm26,526q-58,0-93.5,33T176,724q0,53 35.5,86.5T305,844t93.5-33.5T434,724q0-54-35.5-87T305,604Zm0,61q27,0 43.5,16T365,724t-16.5,43.5T305,784t-43.5-16.5T245,724t16.5-43T305,665Z" />
      <glyph unicode="&#xe6;" glyph-name="gid150" horiz-adv-x="600" d="M171-10q-62,0-99,39.5T35,134v56q0,62 43.5,99.5T193,327h61v77q0,35-14,52.5T197,474q-26,0-41.5-16.5T140,411H42q0,67 38,108t100,41q39,0 64.5-12.5T283,517t16-35h6q3,17 15.5,35T358,547.5T420,560q67,0 106-42t39-114V253H349V146q0-32 16-51t42-19q28,0 44,15.5T467,134h98q0-64-40-104T420-10q-37,0-62,12.5T320.5,33T305,68h-6q-3-17-17.5-35T240,2.5T171-10Zm23,86q27,0 43.5,19T254,146V253H194q-27,0-42.5-16.5T136,190V134q0-27 15.5-42.5T194,76ZM349,327H467v77q0,33-16,51.5T407,474q-27,0-42.5-18.5T349,404V327Z" />
      <glyph unicode="&#xe7;" glyph-name="gid156" horiz-adv-x="600" d="M202-213v62h74q24,0 38,11.5T328-115q0,20-29,33T218-69l35,91h64L297-37q28-2 58-12.5T406-79t21-47q0-35-35.5-61T298-213H202ZM304-10q-70,0-121.5,26t-80,74.5T74,204V346q0,66 28.5,114t80,74T304,560q101,0 162-53t64-144H414q-3,45-32,70t-78,25q-53,0-83.5-29T190,346V204q0-53 30.5-82.5T304,92q49,0 78,25t32,70H530q-3-91-64-144T304-10Z" />
      <glyph unicode="&#xe8;" glyph-name="gid170" horiz-adv-x="600" d="M300-10q-68,0-119,26.5t-79,75T74,204V346q0,64 28,112.5t79,75T300,560q69,0 119.5-26.5t78.5-75T526,346V247H186V204q0-59 29.5-90T301,83q45,0 72.5,16T408,144H523Q510,74 449,32T300-10ZM414,315v31q0,59-28.5,90.5T300,468q-55,0-84.5-32T186,346V323l236,1l-8-9ZM254,645L138,785H267L374,645H254Z" />
      <glyph unicode="&#xe9;" glyph-name="gid164" horiz-adv-x="600" d="M300-10q-68,0-119,26.5t-79,75T74,204V346q0,64 28,112.5t79,75T300,560q69,0 119.5-26.5t78.5-75T526,346V247H186V204q0-59 29.5-90T301,83q45,0 72.5,16T408,144H523Q510,74 449,32T300-10ZM414,315v31q0,59-28.5,90.5T300,468q-55,0-84.5-32T186,346V323l236,1l-8-9ZM229,645L334,785H460L346,645H229Z" />
      <glyph unicode="&#xea;" glyph-name="gid167" horiz-adv-x="600" d="M300-10q-68,0-119,26.5t-79,75T74,204V346q0,64 28,112.5t79,75T300,560q69,0 119.5-26.5t78.5-75T526,346V247H186V204q0-59 29.5-90T301,83q45,0 72.5,16T408,144H523Q510,74 449,32T300-10ZM414,315v31q0,59-28.5,90.5T300,468q-55,0-84.5-32T186,346V323l236,1l-8-9ZM108,645L246,785H354L492,645H377l-78,74l-74-74H108Z" />
      <glyph unicode="&#xeb;" glyph-name="gid168" horiz-adv-x="600" d="M300-10q-68,0-119,26.5t-79,75T74,204V346q0,64 28,112.5t79,75T300,560q69,0 119.5-26.5t78.5-75T526,346V247H186V204q0-59 29.5-90T301,83q45,0 72.5,16T408,144H523Q510,74 449,32T300-10ZM414,315v31q0,59-28.5,90.5T300,468q-55,0-84.5-32T186,346V323l236,1l-8-9Zm2,329q-33,0-52,18.5T345,713q0,33 19,52t52,19q32,0 51.5-19T487,713q0-32-19.5-50.5T416,644Zm-232,0q-32,0-51.5,18.5T113,713q0,33 19.5,52T184,784q33,0 52-19t19-52q0-32-19-50.5T184,644Z" />
      <glyph unicode="&#xec;" glyph-name="gid192" horiz-adv-x="600" d="M78,0V106H271V445H103V550H383V106H557V0H78ZM271,645L155,785H284L391,645H271Z" />
      <glyph unicode="&#xed;" glyph-name="gid187" horiz-adv-x="600" d="M78,0V106H271V445H103V550H383V106H557V0H78ZM246,645L351,785H477L363,645H246Z" />
      <glyph unicode="&#xee;" glyph-name="gid189" horiz-adv-x="600" d="M78,0V106H271V445H103V550H383V106H557V0H78Zm47,645L263,785H371L509,645H394l-78,74l-74-74H125Z" />
      <glyph unicode="&#xef;" glyph-name="gid190" horiz-adv-x="600" d="M78,0V106H271V445H103V550H383V106H557V0H78ZM433,644q-33,0-52,18.5T362,713q0,33 19,52t52,19q32,0 51.5-19T504,713q0-32-19.5-50.5T433,644Zm-232,0q-32,0-51.5,18.5T130,713q0,33 19.5,52T201,784q33,0 52-19t19-52q0-32-19-50.5T201,644Z" />
      <glyph unicode="&#xf0;" glyph-name="gid160" horiz-adv-x="600" d="M299-6Q227-6 172,23T87,104T57,224q0,67 26,116.5t73,77T264,445q32,0 57-11t43-26.5T391,378h10q-2,7-18.5,34T331,484l-59,81L112,498v91l108,46l-71,95H281l39-54l155,64V649L372,606l67-94q52-71 78-141.5T543,235q0-73-30-127T428.5,24T299-6Zm0,100q58,0 93,35.5T427,224q0,39-16,68t-44.5,45T299,353q-56,0-91-35.5T173,224q0-59 35-94.5T299,94Z" />
      <glyph unicode="&#xf1;" glyph-name="gid215" horiz-adv-x="600" d="M80,0V550H195V445h30l-30-27q0,67 39.5,104.5T342,560q82,0 131-53t49-144V0H405V351q0,52-27.5,80T302,459q-49,0-77-29.5T197,346V0H80ZM375,643q-31,0-50,10t-32,23t-25,23t-28,10q-13,0-21.5-9T210,675V648H136v33q0,48 27.5,77T235,787q31,0 50-10t32-23t25-23t28-10q14,0 22,8t8,24v29h74V749q0-48-27-77t-72-29Z" />
      <glyph unicode="&#xf2;" glyph-name="gid221" horiz-adv-x="600" d="M300-9Q231-9 180.5,17T102,91.5T74,206V344q0,66 28,114.5T180.5,533T300,559q70,0 120-26t78-74.5T526,345V206q0-66-28-114.5T420,17T300-9Zm0,102q52,0 81,29t29,84V344q0,56-29,84.5T300,457q-51,0-80.5-28.5T190,344V206q0-55 29.5-84T300,93ZM254,645L138,785H267L374,645H254Z" />
      <glyph unicode="&#xf3;" glyph-name="gid217" horiz-adv-x="600" d="M300-9Q231-9 180.5,17T102,91.5T74,206V344q0,66 28,114.5T180.5,533T300,559q70,0 120-26t78-74.5T526,345V206q0-66-28-114.5T420,17T300-9Zm0,102q52,0 81,29t29,84V344q0,56-29,84.5T300,457q-51,0-80.5-28.5T190,344V206q0-55 29.5-84T300,93ZM229,645L334,785H460L346,645H229Z" />
      <glyph unicode="&#xf4;" glyph-name="gid219" horiz-adv-x="600" d="M300-9Q231-9 180.5,17T102,91.5T74,206V344q0,66 28,114.5T180.5,533T300,559q70,0 120-26t78-74.5T526,345V206q0-66-28-114.5T420,17T300-9Zm0,102q52,0 81,29t29,84V344q0,56-29,84.5T300,457q-51,0-80.5-28.5T190,344V206q0-55 29.5-84T300,93ZM108,645L246,785H354L492,645H377l-78,74l-74-74H108Z" />
      <glyph unicode="&#xf5;" glyph-name="gid228" horiz-adv-x="600" d="M300-9Q231-9 180.5,17T102,91.5T74,206V344q0,66 28,114.5T180.5,533T300,559q70,0 120-26t78-74.5T526,345V206q0-66-28-114.5T420,17T300-9Zm0,102q52,0 81,29t29,84V344q0,56-29,84.5T300,457q-51,0-80.5-28.5T190,344V206q0-55 29.5-84T300,93Zm70,550q-31,0-50,10t-32,23t-25,23t-28,10q-13,0-21.5-9T205,675V648H131v33q0,48 27.5,77T230,787q31,0 50-10t32-23t25-23t28-10q14,0 22,8t8,24v29h74V749q0-48-27-77t-72-29Z" />
      <glyph unicode="&#xf6;" glyph-name="gid220" horiz-adv-x="600" d="M300-9Q231-9 180.5,17T102,91.5T74,206V344q0,66 28,114.5T180.5,533T300,559q70,0 120-26t78-74.5T526,345V206q0-66-28-114.5T420,17T300-9Zm0,102q52,0 81,29t29,84V344q0,56-29,84.5T300,457q-51,0-80.5-28.5T190,344V206q0-55 29.5-84T300,93ZM416,644q-33,0-52,18.5T345,713q0,33 19,52t52,19q32,0 51.5-19T487,713q0-32-19.5-50.5T416,644Zm-232,0q-32,0-51.5,18.5T113,713q0,33 19.5,52T184,784q33,0 52-19t19-52q0-32-19-50.5T184,644Z" />
      <glyph unicode="&#xf7;" glyph-name="gid421" horiz-adv-x="600" d="M100,280V383H500V280H100ZM288,74q-31,0-50.5,17T218,138q0,29 19.5,47T288,203h24q31,0 50.5-18T382,138T362.5,91.5T312,74H288Zm0,386q-31,0-50.5,17.5T218,524t19.5,47T288,589h24q31,0 50.5-18T382,524t-19.5-46.5T312,460H288Z" />
      <glyph unicode="&#xf8;" glyph-name="gid226" horiz-adv-x="600" d="M31-30L468,590H569L132-30H31ZM300-10q-69,0-119.5,26T103,90.5T76,204V346q0,66 27,114t77.5,74T300,560q70,0 120-26t77-74t27-114V204q0-65-27-113.5T420,16T300-10Zm0,102q54,0 84.5,30T415,204V346q0,53-30.5,82.5T300,458t-84.5-29.5T185,346V204q0-52 30.5-82T300,92Z" />
      <glyph unicode="&#xf9;" glyph-name="gid255" horiz-adv-x="600" d="M299-10Q197-10 137.5,48T78,206V550H195V207q0-55 27.5-85T299,92q50,0 78,30t28,85V550H522V206q0-100-60.5-158T299-10ZM254,645L138,785H267L374,645H254Z" />
      <glyph unicode="&#xfa;" glyph-name="gid251" horiz-adv-x="600" d="M299-10Q197-10 137.5,48T78,206V550H195V207q0-55 27.5-85T299,92q50,0 78,30t28,85V550H522V206q0-100-60.5-158T299-10ZM229,645L334,785H460L346,645H229Z" />
      <glyph unicode="&#xfb;" glyph-name="gid253" horiz-adv-x="600" d="M299-10Q197-10 137.5,48T78,206V550H195V207q0-55 27.5-85T299,92q50,0 78,30t28,85V550H522V206q0-100-60.5-158T299-10ZM108,645L246,785H354L492,645H377l-78,74l-74-74H108Z" />
      <glyph unicode="&#xfc;" glyph-name="gid254" horiz-adv-x="600" d="M299-10Q197-10 137.5,48T78,206V550H195V207q0-55 27.5-85T299,92q50,0 78,30t28,85V550H522V206q0-100-60.5-158T299-10ZM416,644q-33,0-52,18.5T345,713q0,33 19,52t52,19q32,0 51.5-19T487,713q0-32-19.5-50.5T416,644Zm-232,0q-32,0-51.5,18.5T113,713q0,33 19.5,52T184,784q33,0 52-19t19-52q0-32-19-50.5T184,644Z" />
      <glyph unicode="&#xfd;" glyph-name="gid270" horiz-adv-x="600" d="M169-180L247,31L42,550H170L278,254q8-21 15.5-51T306,153q4,20 11.5,50T332,254L435,550H558L292-180H169Zm60,825L334,785H460L346,645H229Z" />
      <glyph unicode="&#xfe;" glyph-name="gid231" horiz-adv-x="600" d="M78-170V55H192V-170H78ZM340-10q-68,0-108,38T192,132l26-27H192V0H78V730H194V574l-3-129h27l-26-27q0,66 40.5,104T340,560q83,0 133-56.5T523,351V199q0-96-50-152.5T340-10ZM300,91q50,0 78.5,29.5T407,204V346q0,54-28.5,83.5T300,459q-49,0-77.5-30T194,346V204q0-53 28.5-83T300,91Z" />
      <glyph unicode="&#xff;" glyph-name="gid272" horiz-adv-x="600" d="M169-180L247,31L42,550H170L278,254q8-21 15.5-51T306,153q4,20 11.5,50T332,254L435,550H558L292-180H169ZM416,644q-33,0-52,18.5T345,713q0,33 19,52t52,19q32,0 51.5-19T487,713q0-32-19.5-50.5T416,644Zm-232,0q-32,0-51.5,18.5T113,713q0,33 19.5,52T184,784q33,0 52-19t19-52q0-32-19-50.5T184,644Z" />
      <glyph unicode="&#x2013;" glyph-name="gid328" horiz-adv-x="600" d="M78,277V383H522V277H78Z" />
      <glyph unicode="&#x2014;" glyph-name="gid329" horiz-adv-x="600" d="M0,277V383H600V277H0Z" />
      <glyph unicode="&#x2018;" glyph-name="gid335" horiz-adv-x="600" d="M451,775L371,464H219L349,775H451Z" />
      <glyph unicode="&#x2019;" glyph-name="gid336" horiz-adv-x="600" d="M149,465l80,311H381L251,465H149Z" />
      <glyph unicode="&#x201a;" glyph-name="gid331" horiz-adv-x="600" d="M154-160l80,311H386L256-160H154Z" />
      <glyph unicode="&#x201c;" glyph-name="gid333" horiz-adv-x="600" d="M301,465L431,776H533L453,465H301ZM57,465L187,776H289L209,465H57Z" />
      <glyph unicode="&#x201d;" glyph-name="gid334" horiz-adv-x="600" d="M311,465l80,311H543L413,465H311ZM67,465l80,311H299L169,465H67Z" />
      <glyph unicode="&#x201e;" glyph-name="gid332" horiz-adv-x="600" d="M311-160l80,311H543L413-160H311ZM67-160l80,311H299L169-160H67Z" />
      <glyph unicode="&#x2022;" glyph-name="gid313" horiz-adv-x="600" d="M300,238q-56,0-91.5,35.5T173,365t35.5,91.5T300,492t91.5-35.5T427,365t-35.5-91.5T300,238Z" />
      <glyph unicode="&#x2039;" glyph-name="gid339" horiz-adv-x="600" d="M332,40L142,280L332,520H455L266,282L459,40H332Z" />
      <glyph unicode="&#x203a;" glyph-name="gid340" horiz-adv-x="600" d="M146,40L335,278L142,520H269L459,280L269,40H146Z" />
    </font>
</defs>
</svg>
