<svg xmlns="http://www.w3.org/2000/svg" viewBox="0 0 200 200" width="200" height="200">
  <!-- Background Circle -->
  <circle cx="100" cy="100" r="90" fill="#00D4FF" />
  
  <!-- Inner darker circle for depth -->
  <circle cx="100" cy="100" r="85" fill="#0099cc" opacity="0.3" />
  
  <!-- NS Letters -->
  <g fill="#ffffff" font-family="Arial, sans-serif" font-weight="bold">
    <!-- Letter N -->
    <path d="M 45 140 L 45 60 L 60 60 L 85 110 L 85 60 L 95 60 L 95 140 L 80 140 L 55 90 L 55 140 Z" />
    
    <!-- Letter S -->
    <path d="M 105 140 L 105 130 Q 105 130 115 130 L 135 130 Q 145 130 145 120 L 145 110 Q 145 100 135 100 L 115 100 Q 105 100 105 90 L 105 70 Q 105 60 115 60 L 145 60 L 145 70 L 115 70 L 115 90 L 135 90 Q 155 90 155 110 L 155 120 Q 155 140 135 140 Z" />
  </g>
  
  <!-- Subtle glow effect -->
  <circle cx="100" cy="100" r="88" fill="none" stroke="#00D4FF" stroke-width="2" opacity="0.5" />
  <circle cx="100" cy="100" r="92" fill="none" stroke="#00D4FF" stroke-width="1" opacity="0.3" />
</svg>